<?xml version="1.0" encoding="UTF-8"?>
<svg width="120px" height="120px" viewBox="0 0 120 120" version="1.1" xmlns="http://www.w3.org/2000/svg" xmlns:xlink="http://www.w3.org/1999/xlink">
    <title>Group 2</title>
    <g id="twitter" stroke="none" stroke-width="1" fill="none" fill-rule="evenodd">
        <g id="Group-2">
            <rect id="Rectangle" x="0" y="0" width="120" height="120"></rect>
            <g id="EkStep-Logo-Copy-2" transform="translate(4.000000, 3.031614)" fill="#FFFFFF" fill-rule="nonzero">
                <path d="M105.619406,17.5055711 C105.277254,13.5297545 102.69559,10.098069 98.9703817,8.66733295 C97.9422658,3.62666008 93.5105755,0.00444196769 88.3661236,0 L10.8240124,0 C4.8498028,0.00896357048 0.00898274931,4.84978362 9.57565851e-06,10.8239933 L2.92982187,10.8239933 C2.9343077,6.46601164 6.46603082,2.93428852 10.8240124,2.92980269 L88.3661236,2.92980269 C92.7241052,2.93428852 96.2558284,6.46601164 96.2603142,10.8239933 L96.2603142,90.0181876 C96.2558385,94.3774923 92.7254214,97.9115491 88.3661236,97.9205165 L10.8240124,97.9205165 C6.4647147,97.9115491 2.93429753,94.3774923 2.92982187,90.0181876 L9.57565851e-06,90.0181876 C-0.00667333786,95.0761149 3.4853362,99.4664558 8.41506357,100.598031 C9.7768385,104.393185 13.2138485,107.055836 17.2288867,107.426099 C18.7325842,111.342225 22.4907489,113.929602 26.6856387,113.936771 L101.835078,113.936771 C107.447075,113.932283 111.995377,109.383981 111.999933,103.771984 L111.999933,26.9379081 C112.015018,22.7808895 109.483494,19.038496 105.619406,17.5055711 Z M10.9705026,100.842181 L88.3661236,100.842181 C94.34219,100.837693 99.1856287,95.994254 99.1901169,90.0181876 L99.1901169,11.222772 C101.801366,12.6635544 103.422054,15.4102898 103.422054,18.3926502 L103.422054,97.0904058 C103.395392,101.573997 99.7673045,105.202084 95.2837133,105.228833 L18.2299026,105.228833 C15.1791955,105.242763 12.3768612,103.549424 10.9705026,100.842181 Z M109.81879,103.73943 C109.814304,108.146853 106.242501,111.718657 101.835078,111.723143 L26.6856387,111.723143 C23.7417417,111.721751 21.03698,110.102021 19.6459739,107.507482 L95.2186066,107.507482 C100.968082,107.498519 105.62672,102.839882 105.635683,97.0904058 L105.635683,19.9552116 C108.203028,21.3382951 109.8012,24.0217233 109.794375,26.9379081 L109.81879,103.73943 Z" id="Shape"></path>
                <polygon id="Path" points="15.3245149 67.3936002 25.4567492 67.3936002 25.4567492 69.5177071 17.7660172 69.5177071 17.7660172 74.9785338 24.0244012 74.9785338 24.0244012 77.1026408 17.7660172 77.1026408 17.7660172 82.7180959 25.904358 82.7180959 25.904358 84.8422029 15.3245149 84.8422029"></polygon>
                <polygon id="Path" points="28.484212 67.3936002 30.9257142 67.3936002 30.9257142 76.9317356 32.6835958 76.9317356 36.0935606 72.3335731 38.8117665 72.3335731 34.6612127 77.8513681 34.6612127 77.9001982 39.2837902 84.8422029 36.4516476 84.8422029 32.6917342 78.9419058 30.9257142 78.9419058 30.9257142 84.8259262 28.484212 84.8259262"></polygon>
                <path d="M41.5625257,80.9846293 C42.7709542,82.1279209 44.3520727,82.7956328 46.0141981,82.864586 C47.6418662,82.864586 49.0253842,81.9530919 49.0253842,80.2928704 C49.0253842,76.5004035 40.5777864,77.3142376 40.5777864,71.9673477 C40.5777864,69.2491419 42.9216286,67.0843432 46.2095183,67.0843432 C48.0183522,67.0208935 49.7838673,67.6462407 51.1494911,68.8340865 L50.0426768,70.8605334 C48.9747978,69.9349731 47.6218439,69.4035581 46.2095183,69.3549403 C44.3539766,69.3549403 43.0437037,70.5187231 43.0437037,71.902241 C43.0437037,75.507526 51.4994398,74.5472017 51.4994398,80.2033486 C51.4994398,82.8971394 49.4241629,85.0863531 45.965368,85.0863531 C43.8086623,85.1183692 41.7274554,84.2929116 40.1790077,82.791341 L41.5625257,80.9846293 Z" id="Path"></path>
                <path d="M54.4617958,74.4414033 L52.8341277,74.4414033 L52.8341277,72.5126165 L54.5269026,72.5126165 L54.5269026,68.8991932 L56.8463297,68.8991932 L56.8463297,72.5126165 L59.8656541,72.5126165 L59.8656541,74.4414033 L56.854468,74.4414033 L56.854468,79.9998901 C56.854468,82.4902224 58.6123496,82.815756 59.5238438,82.815756 C59.7148859,82.8183562 59.9057148,82.8019995 60.0935277,82.766926 L60.0935277,84.8910329 C59.8235265,84.92419 59.5517223,84.9404983 59.2796936,84.9398808 C57.6520254,84.9398808 54.4862109,84.4434242 54.4862109,80.2684553 L54.4617958,74.4414033 Z" id="Path"></path>
                <path d="M67.6784613,72.0405928 C71.2105012,72.0405928 73.0904579,74.6611385 73.0904579,77.9001982 C73.0904579,78.2175935 73.0172129,78.9337674 73.0172129,78.9337674 L63.8941328,78.9337674 C63.8763809,80.0650008 64.3303953,81.1525562 65.1472008,81.9353925 C65.9640064,82.7182289 67.0698551,83.1256651 68.1993151,83.0599062 C69.5642516,83.0137483 70.8717468,82.4993711 71.9022602,81.6031432 L72.8951377,83.3610248 C71.5431435,84.5090418 69.8264719,85.1380072 68.052825,85.1351831 C66.2945467,85.2076956 64.5847249,84.5489338 63.3296312,83.3154265 C62.0745374,82.0819191 61.3862147,80.3837821 61.4282156,78.6245105 C61.4282156,74.6123085 64.1220064,72.0405928 67.6784613,72.0405928 Z M70.6408173,77.1351941 C70.5675723,74.9785338 69.2328844,73.9449645 67.6296312,73.9449645 C65.7657039,73.8918527 64.1743955,75.2811464 63.9755162,77.1351941 L70.6408173,77.1351941 Z" id="Shape"></path>
                <path d="M75.5075451,72.3335731 L77.7130355,72.3335731 L77.7130355,73.3996957 C77.7125708,73.704402 77.6935461,74.008797 77.6560671,74.3111899 L77.7130355,74.3111899 C78.5672238,72.8174111 80.1947565,71.9374079 81.9124194,72.0405928 C85.2735541,72.0405928 87.3976611,74.7099686 87.3976611,78.5512654 C87.3976611,82.3925623 84.9561588,85.0619381 81.7008225,85.0619381 C80.1508887,85.1111734 78.6925648,84.3292636 77.8758023,83.0110762 L77.8269723,83.0110762 C77.8269723,83.0110762 77.8758023,83.4586849 77.8758023,84.1016139 L77.8758023,89.7089307 L75.4343001,89.7089307 L75.5075451,72.3335731 Z M81.3671505,83.0843213 C83.3447673,83.0843213 84.9724355,81.4566531 84.9724355,78.6163722 C84.9724355,75.8981663 83.5156725,74.1402847 81.4403956,74.1402847 C79.5604389,74.1402847 77.8351106,75.4505576 77.8351106,78.6407872 C77.8351106,80.8625542 79.0721384,83.0843213 81.3834272,83.0843213 L81.3671505,83.0843213 Z" id="Shape"></path>
                <path d="M2.92982187,87.2674284 L1.91788334e-05,87.2674284 L1.91788334e-05,85.2002899 L2.92982187,85.2002899 L2.92982187,87.2674284 Z M2.92982187,81.0660127 L1.91788334e-05,81.0660127 L1.91788334e-05,78.9988742 L2.92982187,78.9988742 L2.92982187,81.0660127 Z M2.92982187,74.8727354 L1.91788334e-05,74.8727354 L1.91788334e-05,72.8055968 L2.92982187,72.8055968 L2.92982187,74.8727354 Z M2.92982187,68.6713197 L1.91788334e-05,68.6713197 L1.91788334e-05,66.6041811 L2.92982187,66.6041811 L2.92982187,68.6713197 Z M2.92982187,62.469904 L1.91788334e-05,62.469904 L1.91788334e-05,60.4109038 L2.92982187,60.4109038 L2.92982187,62.469904 Z M2.92982187,56.2766266 L1.91788334e-05,56.2766266 L1.91788334e-05,54.2094881 L2.92982187,54.2094881 L2.92982187,56.2766266 Z M2.92982187,50.075211 L1.91788334e-05,50.075211 L1.91788334e-05,48.0162107 L2.92982187,48.0162107 L2.92982187,50.075211 Z M2.92982187,43.8819336 L1.91788334e-05,43.8819336 L1.91788334e-05,41.814795 L2.92982187,41.814795 L2.92982187,43.8819336 Z M2.92982187,37.6805179 L1.91788334e-05,37.6805179 L1.91788334e-05,35.6133794 L2.92982187,35.6133794 L2.92982187,37.6805179 Z M2.92982187,31.4872406 L1.91788334e-05,31.4872406 L1.91788334e-05,29.420102 L2.92982187,29.420102 L2.92982187,31.4872406 Z M2.92982187,25.2858249 L1.91788334e-05,25.2858249 L1.91788334e-05,23.2186863 L2.92982187,23.2186863 L2.92982187,25.2858249 Z M2.92982187,19.0844092 L1.91788334e-05,19.0844092 L1.91788334e-05,17.025409 L2.92982187,17.025409 L2.92982187,19.0844092 Z M2.92982187,12.8911318 L1.91788334e-05,12.8911318 L1.91788334e-05,10.8239933 L2.92982187,10.8239933 L2.92982187,12.8911318 Z" id="Shape"></path>
            </g>
        </g>
    </g>
</svg>